<mxfile host="app.diagrams.net" modified="2023-06-10T17:11:48.879Z" agent="Mozilla/5.0 (X11; Linux x86_64) AppleWebKit/537.36 (KHTML, like Gecko) Chrome/105.0.0.0 Safari/537.36" version="21.3.8" etag="toA-tZWZpyUon1UXKp8F" type="github">
  <diagram name="PÃ¡gina-1" id="Zz4dVG46u_ufzUp_n0gq">
    <mxGraphModel>
      <root>
        <mxCell id="0" />
        <mxCell id="1" parent="0" />
      </root>
    </mxGraphModel>
  </diagram>
</mxfile>
